<svg width="54" height="27" viewBox="0 0 54 27" fill="none" xmlns="http://www.w3.org/2000/svg">
<path d="M53.3813 11.585C53.3807 11.5844 53.3802 11.5836 53.3794 11.583L42.3575 0.614243C41.5318 -0.207464 40.1963 -0.204406 39.3743 0.621414C38.5525 1.44713 38.5557 2.78268 39.3814 3.60449L46.7815 10.9687H2.10938C0.944367 10.9687 0 11.9131 0 13.0781C0 14.2431 0.944367 15.1875 2.10938 15.1875H46.7814L39.3815 22.5517C38.5558 23.3735 38.5526 24.7091 39.3744 25.5348C40.1964 26.3607 41.532 26.3636 42.3576 25.542L53.3795 14.5732C53.3802 14.5726 53.3807 14.5719 53.3814 14.5712C54.2076 13.7467 54.2049 12.4068 53.3813 11.585Z" fill="#DDD6BF"/>
</svg>
