<svg width="51" height="77" viewBox="0 0 51 77" fill="none" xmlns="http://www.w3.org/2000/svg">
<g clip-path="url(#clip0_174_717)">
<path d="M49.6421 23.7198C49.6415 23.7192 49.641 23.7185 49.6403 23.7179L39.3904 13.5175C38.6226 12.7534 37.3806 12.7562 36.6162 13.5242C35.852 14.292 35.8549 15.534 36.6228 16.2983L43.5045 23.1467H1.96162C0.878216 23.1467 0 24.0249 0 25.1083C0 26.1917 0.878216 27.0699 1.96162 27.0699H43.5044L36.6229 33.9183C35.855 34.6826 35.8521 35.9246 36.6163 36.6924C37.3807 37.4605 38.6228 37.4632 39.3905 36.6991L49.6404 26.4987C49.641 26.4981 49.6415 26.4974 49.6421 26.4968C50.4104 25.73 50.408 24.484 49.6421 23.7198Z" fill="#DDD6BF"/>
</g>
<g clip-path="url(#clip1_174_717)">
<path d="M0.574745 50.502C0.575336 50.5014 0.575825 50.5007 0.576511 50.5001L10.8264 40.2997C11.5942 39.5356 12.8362 39.5384 13.6006 40.3064C14.3648 41.0743 14.3619 42.3163 13.594 43.0805L6.71225 49.9289H48.2552C49.3386 49.9289 50.2168 50.8071 50.2168 51.8905C50.2168 52.9739 49.3386 53.8521 48.2552 53.8521H6.71235L13.5939 60.7005C14.3618 61.4648 14.3647 62.7068 13.6005 63.4747C12.8361 64.2427 11.594 64.2454 10.8263 63.4813L0.576412 53.2809C0.575825 53.2803 0.575336 53.2796 0.57465 53.2791C-0.193619 52.5123 -0.191166 51.2662 0.574745 50.502Z" fill="#DDD6BF"/>
</g>
<defs>
<clipPath id="clip0_174_717">
<rect width="50.2174" height="50.2174" fill="white"/>
</clipPath>
<clipPath id="clip1_174_717">
<rect width="50.2174" height="50.2174" fill="white" transform="matrix(-1 0 0 1 50.2168 26.7822)"/>
</clipPath>
</defs>
</svg>
