<svg width="81" height="81" viewBox="0 0 81 81" fill="none" xmlns="http://www.w3.org/2000/svg">
<path d="M61.4974 44.3154C61.3468 44.3154 61.1974 44.3154 61.0455 44.3319C59.4193 44.4977 57.9203 45.2864 56.8626 46.5328C55.8049 47.7792 55.2705 49.3866 55.3715 51.0181C55.4724 52.6497 56.2008 54.1789 57.4041 55.2854C58.6074 56.3919 60.1921 56.9899 61.8264 56.954H61.9467C63.6169 56.8321 65.1707 56.0531 66.2676 54.7877C67.3646 53.5223 67.9152 51.8737 67.7989 50.2031C67.6876 48.6071 66.9758 47.1125 65.8068 46.0201C64.6379 44.9277 63.0986 44.3186 61.4986 44.3154H61.4974ZM60.3127 51.9953L60.1368 49.4703L62.6617 49.2931L62.8364 51.8181L60.3127 51.9953Z" fill="#2A2A2A"/>
<path d="M67.7367 31.1766L43.748 32.8536L44.9846 50.5293L52.6593 49.9927C52.8113 47.8676 53.7251 45.8687 55.2328 44.3634C56.7405 42.8581 58.7407 41.9474 60.866 41.7987C62.9914 41.65 65.0989 42.2733 66.8015 43.554C68.5041 44.8347 69.6874 46.6869 70.1338 48.7701L74.0205 48.498C74.1864 48.4865 74.3484 48.4426 74.4973 48.3685C74.6462 48.2945 74.7791 48.1918 74.8883 48.0664C74.9974 47.941 75.0808 47.7953 75.1337 47.6376C75.1866 47.4799 75.2078 47.3134 75.1963 47.1475L75.1077 45.8819L71.321 46.1464L71.145 43.6215L74.9318 43.357L74.7559 40.8321L69.7048 41.1839C69.6453 41.1839 69.5845 41.1902 69.525 41.1902C68.8846 41.1895 68.2683 40.9461 67.8002 40.5091C67.3322 40.072 67.0472 39.4738 67.0026 38.8349L66.8242 36.315C66.7772 35.6454 66.9982 34.9845 67.4385 34.4778C67.8787 33.9711 68.5023 33.66 69.1719 33.6129L72.9359 33.3497C72.299 32.6068 71.4971 32.0234 70.5942 31.646C69.6914 31.2687 68.7128 31.1079 67.7367 31.1766ZM46.6261 37.7275L46.4502 35.1962L51.5 34.8444L51.6759 37.3756L46.6261 37.7275Z" fill="#2A2A2A"/>
<path d="M74.5793 38.3096L74.4907 37.044C74.4615 36.6201 74.3894 36.2003 74.2755 35.791L69.3535 36.1353L69.5307 38.6602L74.5793 38.3096Z" fill="#2A2A2A"/>
<path d="M42.8672 20.2271L43.5734 30.328L60.0569 29.1751L52.1354 19.5791L42.8672 20.2271Z" fill="#2A2A2A"/>
<path d="M12.2871 32.516L41.0459 30.505L40.3397 20.4053L13.5996 22.2746L12.2871 32.516Z" fill="#2A2A2A"/>
<path d="M18.5725 47.3164C18.4232 47.3164 18.2739 47.3164 18.1232 47.3316C16.4494 47.4481 14.8904 48.2245 13.7889 49.4902C12.6874 50.756 12.1337 52.4073 12.2495 54.0812C12.2956 54.8111 12.4717 55.5269 12.7696 56.1948C12.87 56.4211 13.034 56.6133 13.2416 56.7482C13.4492 56.883 13.6915 56.9545 13.9391 56.9541H23.1782C23.4309 56.9521 23.6775 56.8763 23.8877 56.736C24.098 56.5957 24.2626 56.397 24.3615 56.1644C24.7791 55.2024 24.9511 54.1518 24.862 53.1069C24.7729 52.062 24.4255 51.0557 23.8511 50.1783C23.2767 49.3009 22.4933 48.5801 21.5712 48.0805C20.6492 47.581 19.6174 47.3184 18.5687 47.3164H18.5725ZM17.3854 54.9975L17.2107 52.4662L19.7344 52.2903L19.9103 54.8152L17.3854 54.9975Z" fill="#3F6745"/>
<path d="M46.2271 14.9184L14.6396 17.127C13.4126 17.2132 12.2374 17.6551 11.2576 18.3986C10.2778 19.1422 9.53592 20.1551 9.12272 21.3136L4.78669 33.4636C3.90488 35.9303 3.54544 38.5533 3.73116 41.1662L4.23741 48.3031L8.02289 48.0386L8.20008 50.5635L4.41333 50.828L4.50192 52.0936C4.50904 52.2609 4.5502 52.425 4.62288 52.5758C4.69555 52.7267 4.79823 52.8611 4.92462 52.9709C5.05102 53.0807 5.19847 53.1636 5.35799 53.2145C5.5175 53.2654 5.68571 53.2832 5.85235 53.2669L9.74035 52.9948C9.89738 50.8736 10.8133 48.8799 12.3203 47.3789C13.8274 45.878 15.8247 44.9701 17.9465 44.8216C20.0683 44.6731 22.1726 45.294 23.874 46.5704C25.5754 47.8469 26.7601 49.6935 27.211 51.7722L42.4593 50.7052L41.2228 33.0333L12.4627 35.0419C12.4032 35.0419 12.3437 35.0419 12.2843 35.0419C11.9249 35.0415 11.5697 34.9647 11.2424 34.8165C10.915 34.6682 10.623 34.452 10.3857 34.1821C10.1484 33.9123 9.97124 33.5949 9.86608 33.2513C9.76093 32.9077 9.73014 32.5456 9.77578 32.1892L11.0895 21.9477C11.1639 21.3673 11.437 20.8305 11.8625 20.4288C12.288 20.0271 12.8396 19.7852 13.4233 19.7443L50.1555 17.1763L49.419 16.2904C49.0331 15.8258 48.5427 15.4593 47.9879 15.2208C47.4331 14.9823 46.8296 14.8787 46.2271 14.9184ZM18.6744 37.1441L18.8516 39.6753L13.8017 40.0297L13.6258 37.4984L18.6744 37.1441Z" fill="#2A2A2A"/>
<path d="M2.53125 56.9531H78.4688V59.4844H2.53125V56.9531Z" fill="#2A2A2A"/>
<path d="M17.7188 63.2812H20.25V68.3438H17.7188V63.2812Z" fill="#2A2A2A"/>
<path d="M22.8926 62.5605L25.1555 61.4291L27.6855 66.489L25.4225 67.6205L22.8926 62.5605Z" fill="#2A2A2A"/>
<path d="M10.2285 66.5029L12.7585 61.443L15.0214 62.5745L12.4915 67.6344L10.2285 66.5029Z" fill="#2A2A2A"/>
</svg>
