<svg width="75" height="75" viewBox="0 0 75 75" fill="none" xmlns="http://www.w3.org/2000/svg">
<path d="M43.0086 33.8311C40.9856 33.8311 39.3398 35.4768 39.3398 37.4998C39.3398 39.5227 40.9856 41.1685 43.0086 41.1685C45.0315 41.1685 46.6773 39.5227 46.6773 37.4998C46.6773 35.4768 45.0315 33.8311 43.0086 33.8311Z" fill="#2A2A2A"/>
<path d="M45.4375 22.71V29.3257C47.3216 29.8867 48.9344 31.0819 50.0273 32.6637L56.3197 30.6191C54.1797 26.4953 50.1794 23.4862 45.4375 22.71Z" fill="#2A2A2A"/>
<path d="M57.8249 35.2402L51.5306 37.2855C51.5323 37.3569 51.5361 37.428 51.5361 37.4998C51.5361 39.4476 50.8784 41.2436 49.7754 42.6811L53.6616 48.0298C56.3392 45.321 57.9951 41.6003 57.9951 37.4998C57.9951 36.7319 57.9368 35.9773 57.8249 35.2402Z" fill="#2A2A2A"/>
<path d="M43.0079 5.50879H13.4457C12.1037 5.50879 11.0158 6.59673 11.0158 7.93868C11.0158 9.28062 12.1037 10.3686 13.4457 10.3686H26.0765C23.4116 12.0375 21.0088 14.0871 18.9456 16.4418H2.42989C1.08794 16.442 0 17.5301 0 18.872C0 20.2139 1.08794 21.3019 2.42989 21.3019H15.4304C12.627 26.0562 11.0156 31.5936 11.0156 37.5009C11.0156 44.3745 13.1952 50.7487 16.8986 55.9692H10.0042C8.66222 55.9692 7.57428 57.0572 7.57428 58.3991C7.57428 59.7411 8.66222 60.829 10.0042 60.829H21.1398C22.6549 62.2502 24.308 63.5255 26.0765 64.6331H2.68052C1.33858 64.6331 0.250635 65.721 0.250635 67.063C0.250635 68.4049 1.33858 69.4929 2.68052 69.4929H43.0079C60.6486 69.4929 75 55.1412 75 37.5007C75 19.8603 60.6485 5.50879 43.0079 5.50879ZM54.8113 53.4472C54.7667 53.485 54.7223 53.5231 54.6741 53.5578C54.6199 53.5972 54.5644 53.634 54.5083 53.6683C51.2616 55.9843 47.2911 57.3484 43.0079 57.3484C38.7247 57.3484 34.7544 55.9843 31.5075 53.6683C31.4513 53.634 31.3959 53.5972 31.3417 53.5578C31.2937 53.5228 31.2493 53.4847 31.2045 53.4472C26.3272 49.8276 23.1602 44.0274 23.1602 37.5009C23.1602 26.5569 32.0639 17.6532 43.0079 17.6532C53.9519 17.6532 62.8555 26.5569 62.8555 37.5009C62.8555 44.0275 59.6887 49.8276 54.8113 53.4472Z" fill="#3F6745"/>
<path d="M29.6953 30.6191L35.9876 32.6637C37.0808 31.082 38.6934 29.8868 40.5775 29.3257V22.71C35.8358 23.4863 31.8355 26.4953 29.6953 30.6191Z" fill="#2A2A2A"/>
<path d="M45.8478 45.542C44.9592 45.8566 44.0043 46.0296 43.0091 46.0296C42.0141 46.0296 41.0589 45.8566 40.1703 45.542L36.2832 50.8919C38.307 51.9125 40.5919 52.4884 43.0091 52.4884C45.4262 52.4884 47.7111 51.9126 49.7349 50.8919L45.8478 45.542Z" fill="#2A2A2A"/>
<path d="M34.4788 37.4998C34.4788 37.428 34.4823 37.3569 34.484 37.2855L28.1897 35.2402C28.0778 35.9773 28.0195 36.7319 28.0195 37.4998C28.0195 41.6005 29.6755 45.3212 32.3531 48.0301L36.2394 42.6811C35.1365 41.2438 34.4788 39.4476 34.4788 37.4998Z" fill="#2A2A2A"/>
</svg>
