<svg width="75" height="75" viewBox="0 0 75 75" fill="none" xmlns="http://www.w3.org/2000/svg">
<path d="M27.3047 33.4199L17.0156 39.0344C17.6229 40.2331 18.3754 41.3524 19.2562 42.3672L27.6176 34.0059C27.4995 33.8183 27.3949 33.6224 27.3047 33.4199Z" fill="#2A2A2A"/>
<path d="M16.1016 26.418C14.9453 29.804 14.9453 33.478 16.1016 36.8641L25.6781 31.641L16.1016 26.418Z" fill="#2A2A2A"/>
<path d="M27.6176 29.2744L19.2562 20.9131C18.3752 21.9277 17.6226 23.0471 17.0156 24.2459L27.3047 29.8604C27.3949 29.6578 27.4995 29.462 27.6176 29.2744Z" fill="#2A2A2A"/>
<path d="M29.2754 35.6641L20.9141 44.0254C21.9288 44.9062 23.0482 45.6588 24.2469 46.266L29.8613 35.977C29.6588 35.8868 29.463 35.7822 29.2754 35.6641Z" fill="#2A2A2A"/>
<path d="M26.418 47.1801C29.804 48.3363 33.478 48.3363 36.8641 47.1801L31.641 37.6035L26.418 47.1801Z" fill="#2A2A2A"/>
<path d="M34.0059 27.6176L42.3672 19.2562C41.3524 18.3754 40.2331 17.6229 39.0344 17.0156L33.4199 27.3047C33.6224 27.3949 33.8183 27.4995 34.0059 27.6176Z" fill="#2A2A2A"/>
<path d="M29.8613 27.3047L24.2469 17.0156C23.0482 17.6229 21.9288 18.3754 20.9141 19.2562L29.2754 27.6176C29.463 27.4995 29.6588 27.3949 29.8613 27.3047Z" fill="#2A2A2A"/>
<path d="M52.7344 43.3594H71.4844C71.4844 42.7378 71.2374 42.1416 70.7979 41.7021C70.3584 41.2626 69.7622 41.0156 69.1406 41.0156H55.0781C54.4565 41.0156 53.8604 41.2626 53.4208 41.7021C52.9813 42.1416 52.7344 42.7378 52.7344 43.3594Z" fill="#3F6745"/>
<path d="M36.8641 16.1016C33.478 14.9453 29.804 14.9453 26.418 16.1016L31.641 25.6781L36.8641 16.1016Z" fill="#2A2A2A"/>
<path d="M31.6406 33.9844C32.935 33.9844 33.9844 32.935 33.9844 31.6406C33.9844 30.3462 32.935 29.2969 31.6406 29.2969C30.3462 29.2969 29.2969 30.3462 29.2969 31.6406C29.2969 32.935 30.3462 33.9844 31.6406 33.9844Z" fill="#2A2A2A"/>
<path d="M33.4199 35.977L39.0344 46.266C40.233 45.6586 41.3523 44.9061 42.3672 44.0254L34.0059 35.6641C33.8183 35.7822 33.6224 35.8868 33.4199 35.977Z" fill="#2A2A2A"/>
<path d="M35.6641 34.0062L44.0254 42.3676C44.7875 41.493 45.4553 40.5404 46.0176 39.5258L35.9395 33.4824C35.859 33.6627 35.767 33.8377 35.6641 34.0062Z" fill="#2A2A2A"/>
<path d="M52.7344 66.7969H71.4844V45.7031H52.7344V66.7969ZM62.1094 50.3906C63.2324 50.3913 64.3313 50.7169 65.2734 51.3281L66.9797 48.5977L68.9719 49.8398L66.9937 53.0039C67.717 54.0908 68.0566 55.3881 67.9586 56.6899C67.8605 57.9917 67.3306 59.2236 66.4527 60.1899C65.5749 61.1562 64.3995 61.8017 63.113 62.0239C61.8265 62.2461 60.5027 62.0323 59.3516 61.4164C58.2004 60.8005 57.288 59.8178 56.7589 58.6243C56.2299 57.4308 56.1147 56.0947 56.4315 54.8282C56.7482 53.5617 57.4789 52.4373 58.5076 51.6333C59.5362 50.8294 60.8039 50.392 62.1094 50.3906Z" fill="#3F6745"/>
<path d="M58.8609 38.6719C59.3543 36.7546 59.6438 34.7906 59.7246 32.8125H55.0781V30.4687H59.7363C59.4638 23.8256 56.8378 17.4957 52.3277 12.6105L48.8754 16.0629L47.2184 14.4059L50.6707 10.9535C45.7855 6.44341 39.4557 3.81744 32.8125 3.54492V8.20312H30.4687V3.54492C23.8256 3.81744 17.4957 6.44341 12.6105 10.9535L16.0629 14.4059L14.4059 16.0629L10.9535 12.6105C6.44341 17.4957 3.81744 23.8256 3.54492 30.4687H8.20312V32.8125H3.54492C3.81744 39.4557 6.44341 45.7855 10.9535 50.6707L14.4059 47.2184L16.0629 48.8754L12.6105 52.3277C17.4957 56.8378 23.8256 59.4638 30.4687 59.7363V55.0781H32.8125V59.7105C39.3234 59.4526 45.5402 56.9307 50.3906 52.5797V52.0476L47.2184 48.8754L48.8754 47.2184L50.3906 48.7336V43.3594C50.3906 42.1162 50.8845 40.9239 51.7636 40.0448C52.6426 39.1657 53.8349 38.6719 55.0781 38.6719H58.8609ZM31.6406 50.3906C27.9322 50.3906 24.3071 49.2909 21.2237 47.2307C18.1403 45.1704 15.737 42.2421 14.3179 38.8159C12.8987 35.3898 12.5274 31.6198 13.2509 27.9827C13.9744 24.3455 15.7601 21.0046 18.3824 18.3824C21.0046 15.7601 24.3455 13.9744 27.9827 13.2509C31.6198 12.5274 35.3898 12.8987 38.8159 14.3179C42.2421 15.737 45.1704 18.1403 47.2307 21.2237C49.2909 24.3071 50.3906 27.9322 50.3906 31.6406C50.3847 36.6116 48.4074 41.3773 44.8924 44.8924C41.3773 48.4074 36.6116 50.3847 31.6406 50.3906Z" fill="#2A2A2A"/>
<path d="M55.0781 71.4844H69.1406C69.7622 71.4844 70.3584 71.2374 70.7979 70.7979C71.2374 70.3584 71.4844 69.7622 71.4844 69.1406H52.7344C52.7344 69.7622 52.9813 70.3584 53.4208 70.7979C53.8604 71.2374 54.4565 71.4844 55.0781 71.4844Z" fill="#3F6745"/>
<path d="M35.6641 29.2744C35.781 29.4621 35.8844 29.6579 35.9734 29.8604L46.266 24.2459C45.6588 23.0472 44.9062 21.9279 44.0254 20.9131L35.6641 29.2744Z" fill="#2A2A2A"/>
<path d="M46.9926 37.3762C48.3313 33.8571 48.3976 29.9808 47.1801 26.418L37.5156 31.6914L46.9926 37.3762Z" fill="#2A2A2A"/>
<path d="M60.741 54.4277L58.791 55.7285L61.1348 59.2441C61.2418 59.4046 61.3868 59.5361 61.5569 59.6271C61.727 59.7181 61.9169 59.7657 62.1098 59.7656H62.1273C62.3231 59.7627 62.515 59.7107 62.6855 59.6145C62.8561 59.5183 62.9998 59.3809 63.1035 59.2148L66.9848 53.0039C66.5352 52.334 65.9529 51.7637 65.2738 51.3281L62.0828 56.434L60.741 54.4277Z" fill="#3F6745"/>
</svg>
